<svg width="853.7800000000001" height="726" xmlns="http://www.w3.org/2000/svg">
 <title>treasure</title>

 <g>
  <title>background</title>
  <rect x="-1" y="-1" width="855.78" height="728" id="canvas_background" fill="none"/>
 </g>
 <g>
  <title>Layer 1</title>
  <ellipse cx="286.98" cy="521" rx="277" ry="54" fill="#3f3d56" id="svg_1"/>
  <path d="m65.25,508s-51.36,-13.81 -61.05,-12.79s14.68,-47.36 30.91,-41.46s37.87,21.42 50.24,-0.5s19.31,-33.72 34.38,-32.54s35.94,-9.43 51,0s25.64,21.06 46.44,20.56s40.52,-47.69 56.72,-28.81s35.63,36.15 50.86,29.87s32.61,3.16 46.52,13.78s38.26,5.9 47.53,-2.36s16.24,-14.16 35.94,-13s82.31,15.34 105.5,33s-30.14,40.12 -55.65,40.12s-30.14,7.08 -52.17,17.7s-58,-5.9 -83.47,11.8s-58,-9.44 -102,0s-34.78,22.41 -60.29,13s-16.23,-13 -53.33,-15.34s-77.67,5.9 -81.15,-9.44s-26.64,-18.88 -40.56,-23.6s33.63,0.01 33.63,0.01z" fill="#3f3d56" id="svg_2"/>
  <path d="m459.97,518.56s-34.61,-9.16 -41.13,-8.49s9.89,-31.34 20.82,-27.44s25.52,14.18 33.85,-0.33s13,-22.32 23.17,-21.54s24.21,-6.25 34.36,0s17.27,13.94 31.29,13.61s27.29,-31.57 38.22,-19.08s24,23.94 34.26,19.78s22,2.09 31.35,9.12s25.77,3.91 32,-1.56s10.94,-9.37 24.22,-8.59s55.45,10.15 71.07,21.87s-20.31,26.55 -37.49,26.55s-20.31,4.69 -35.15,11.72s-39.05,-3.91 -56.23,7.81s-39.05,-6.25 -68.73,0s-23.43,14.84 -40.62,8.59s-10.93,-8.59 -35.92,-10.15s-52.33,3.9 -54.68,-6.25s-18,-12.5 -27.33,-15.62s22.67,0 22.67,0z" fill="#3f3d56" id="svg_5"/>
  <ellipse cx="413.009988" cy="1627.780005" rx="6.67" ry="7.2" transform="rotate(-72.75 413.0099792480467,1627.780029296875) " fill="#3f3d56" id="svg_10"/>
  <ellipse cx="516.609999" cy="1860.100044" rx="6.67" ry="7.2" transform="rotate(-72.75 -315.9700012207032,1095.1700439453125) " fill="#3f3d56" id="svg_12"/>
  <ellipse cx="305.499996" cy="1590.050005" rx="6.67" ry="7.2" transform="rotate(-72.75 -365.1600036621095,892.8800048828125) " fill="#3f3d56" id="svg_13"/>
  <path d="m507.61,529.49s-34.61,-9.16 -41.13,-8.48s9.89,-31.35 20.82,-27.44s25.52,14.17 33.85,-0.34s13,-22.31 23.17,-21.53s24.21,-6.25 34.36,0s17.27,13.93 31.29,13.6s27.29,-31.57 38.23,-19.07s24,23.93 34.26,19.78s22,2.09 31.34,9.12s25.78,3.9 32,-1.56s10.93,-9.38 24.21,-8.6s55.45,10.16 71.07,21.87s-20.3,26.56 -37.49,26.56s-20.3,4.68 -35.14,11.71s-39.06,-3.9 -56.24,7.81s-39.05,-6.24 -68.73,0s-23.43,14.84 -40.61,8.6s-10.94,-8.6 -35.93,-10.16s-52.33,3.91 -54.67,-6.25s-17.95,-12.49 -27.33,-15.62s22.67,0 22.67,0z" fill="#3f3d56" id="svg_26"/>
  <path d="m801.38,503.17c3,-5.51 -0.4,-12.27 -4.28,-17.18s-8.62,-10 -8.52,-16.29c0.15,-9 9.7,-14.31 17.33,-19.09a84,84 0 0 0 15.56,-12.51a22.61,22.61 0 0 0 4.78,-6.4c1.58,-3.52 1.54,-7.52 1.44,-11.37q-0.49,-19.26 -1.91,-38.49" fill="none" stroke="#3f3d56" stroke-miterlimit="10" stroke-width="4" id="svg_27"/>
  <path d="m840.29,381.14a14,14 0 0 0 -7,-11.5l-3.14,6.22l0.1,-7.53a14.19,14.19 0 0 0 -4.63,-0.56a14,14 0 1 0 14.68,13.37l-0.01,0z" fill="#57b793" id="svg_28"/>
  <path d="m815.26,476.13a14,14 0 1 1 0.68,-11.3l-8.77,7.17l9.65,-2.23a14,14 0 0 1 -1.56,6.36z" fill="#57b793" id="svg_29"/>
  <path d="m808.33,448.88a14,14 0 0 1 -4.44,-27.53l-0.07,5.78l3.17,-6.29l0,0a14,14 0 0 1 14.7,13.36a13.84,13.84 0 0 1 -0.6,4.79a14,14 0 0 1 -12.76,9.89z" fill="#57b793" id="svg_30"/>
  <path d="m842.4,426.21a14,14 0 1 1 6.21,-26.27l-2.48,6.8l5.1,-4.9a14,14 0 0 1 4.53,9.69a13.79,13.79 0 0 1 -0.35,3.87a14,14 0 0 1 -13.01,10.81z" fill="#57b793" id="svg_31"/>
  <path d="m838.4,384.88c-3.24,0.35 -6.39,1.36 -9.64,1.56s-6.82,-0.57 -8.87,-3.1c-1.11,-1.36 -1.67,-3.08 -2.6,-4.57a10,10 0 0 0 -3.54,-3.33a14,14 0 1 0 26.24,9.32q-0.79,0.03 -1.59,0.12z" opacity="0.1" id="svg_32"/>
  <path d="m842.4,426.21a14.05,14.05 0 0 1 -13.35,-20a10.37,10.37 0 0 1 2.84,2.79c1,1.51 1.61,3.26 2.79,4.64c2.18,2.57 5.91,3.41 9.3,3.26s6.66,-1.12 10,-1.43c0.47,0 1,-0.07 1.42,-0.08a14,14 0 0 1 -13,10.82z" opacity="0.1" id="svg_33"/>
  <path d="m808.33,448.88a14,14 0 0 1 -13.44,-19.76a11.32,11.32 0 0 1 3,2.85c1.09,1.54 1.77,3.32 3,4.74c2.37,2.63 6.35,3.56 9.94,3.48s6.82,-0.93 10.27,-1.2a14,14 0 0 1 -12.77,9.89z" opacity="0.1" id="svg_34"/>
  <path d="m815.26,476.13a14,14 0 0 1 -25.58,-11.45a14,14 0 0 1 3.07,2.75c1.34,1.62 2.22,3.47 3.76,5c2.87,2.82 7.5,4 11.63,4.09a60,60 0 0 0 7.12,-0.39z" opacity="0.1" id="svg_35"/>
  <path d="m780.21,496.82s11.08,-0.34 14.42,-2.72s17,-5.21 17.87,-1.4s16.64,19 4.14,19.06s-29.06,-1.94 -32.39,-4s-4.04,-10.94 -4.04,-10.94z" fill="#656380" id="svg_36"/>
  <path d="m816.89,510.44c-12.51,0.1 -29.06,-2 -32.39,-4c-2.54,-1.55 -3.55,-7.09 -3.89,-9.65l-0.37,0s0.7,8.94 4,11s19.88,4.07 32.39,4c3.61,0 4.85,-1.31 4.79,-3.21c-0.53,1.12 -1.87,1.83 -4.53,1.86z" opacity="0.2" id="svg_37"/>
 </g>
</svg>