<svg id="ezezah73rdc1" xmlns="http://www.w3.org/2000/svg" xmlns:xlink="http://www.w3.org/1999/xlink" viewBox="0 0 800 800" shape-rendering="geometricPrecision" text-rendering="geometricPrecision"><style><![CDATA[#ezezah73rdc4_to {animation: ezezah73rdc4_to__to 3000ms linear infinite normal forwards}@keyframes ezezah73rdc4_to__to { 0% {transform: translate(179.489476px,902.874027px)} 6.666667% {transform: translate(186.009610px,993.788220px)} 13.333333% {transform: translate(82.234466px,1063.062857px)} 20% {transform: translate(-41.484114px,981.383239px)} 26.666667% {transform: translate(-96.596796px,855.938113px)} 33.333333% {transform: translate(-176.516420px,736.058678px)} 46.666667% {transform: translate(-267.853133px,509.619744px)} 60% {transform: translate(-173.488866px,741.901016px)} 100% {transform: translate(183.255828px,903.763867px)} }#ezezah73rdc4_tr {animation: ezezah73rdc4_tr__tr 3000ms linear infinite normal forwards}@keyframes ezezah73rdc4_tr__tr { 0% {transform: rotate(-90.047865deg)} 6.666667% {transform: rotate(-100.359241deg)} 13.333333% {transform: rotate(-90.094764deg)} 20% {transform: rotate(-87.168853deg)} 26.666667% {transform: rotate(-82.808359deg)} 33.333333% {transform: rotate(-72.507859deg)} 46.666667% {transform: rotate(-56.506031deg)} 60% {transform: rotate(-72.150305deg)} 100% {transform: rotate(-90.212781deg)} }]]></style><g id="ezezah73rdc2"><rect id="ezezah73rdc3" width="802" height="802" rx="0" ry="0" transform="matrix(1 0 0 1 -1.99999999999986 -0.99999999999984)" fill="none" stroke="none" stroke-width="1"/></g><g id="ezezah73rdc4_to" transform="translate(179.489476,902.874027)"><g id="ezezah73rdc4_tr" transform="rotate(-90.047865)"><g id="ezezah73rdc4" transform="translate(0,0)"><path id="ezezah73rdc5" d="M381.630000,370.070000C381.630000,370.070000,374,376.270000,364.990000,360.010000C355.980000,343.750000,312.470000,304.670000,312.470000,304.670000C312.470000,304.670000,306.840000,299.520000,328.230000,290.940000C349.620000,282.360000,378.830000,251,378.830000,251C378.830000,251,427.570000,294.330000,432.340000,315.790000C437.110000,337.250000,426.670000,340.890000,408.750000,352.290000C390.830000,363.690000,381.630000,370.070000,381.630000,370.070000Z" transform="matrix(1 0 0 1 83.97651430212129 56.90334819125194)" fill="rgb(127,90,0)" stroke="none" stroke-width="1"/><path id="ezezah73rdc6" d="M546.905566,524.922038L398.320000,352.119757L410.931653,349.290000L557.004552,521.343915C557.747164,522.224787,557.909527,523.261389,557.455086,524.220339C557.000646,525.179289,555.967599,525.979984,554.588527,526.442155L554.588527,526.442155C551.812178,527.361534,548.406215,526.687645,546.905566,524.922038Z" transform="matrix(1 0 0 1 83.97651430212129 56.90334819125194)" fill="rgb(101,99,128)" stroke="none" stroke-width="1"/></g></g></g></svg>